<svg id="Ebene_1" data-name="Ebene 1" xmlns="http://www.w3.org/2000/svg" viewBox="0 0 81 81"><defs><style>.cls-1,.cls-2{fill:#fff;}.cls-1{stroke:#fff;stroke-miterlimit:10;stroke-width:0.75px;}</style></defs><title>Zeichenfläche 2 Kopie 7</title><path d="M70.73,58.44h0l-4-36.17s0,0,0,0l-18.66-11,0,0L43.48,0h0L10.28,22.24a0,0,0,0,0,0,0l4,36.17h0l18.66,11,0,0,4.57,11.19h0L70.72,58.45Z"/><path class="cls-1" d="M60.57,44.84l-.26.27c-1.15,1.19-2,1.7-2.52,1.51-1.56-.57-2.42-4.44-2-14.06H51.55c-1.11,5-4.18,12-6,12.06h0a.69.69,0,0,1-.58-.3c-1.23-1.63,1.23-11.76,1.23-11.76H41.89s-3.61,3.83-6.82,6.76c-.52-2.91-1.53-7-1.53-7H27.65s1.91,6.74,2.39,9.87c-.29.29-.64.63-1.05,1-2.18,2.08-5.84,5.22-6.06,8.61s1.07,4.76,2.2,5.33a4.26,4.26,0,0,0,2,.44,5.77,5.77,0,0,0,3.22-1c4.2-3,6.22-6,5-15.31.88-.91,2.9-3.57,5.48-6.68A36.88,36.88,0,0,0,39.91,44a4.44,4.44,0,0,0,3,4c1.58.45,3.28-.21,4.63-1.81s2.26-5.9,3.22-8.61c.2,7.25,2.32,11,4.06,11.56a3.88,3.88,0,0,0,1.06.15c2.07,0,4-1.8,5.24-3.54l.18-.25Zm-34,4.73c1.22-2.37,2.4-5,3.75-6.58.93,7.13.84,13.24-2.4,13.24S25.46,51.62,26.53,49.57Z"/><rect class="cls-2" x="26.47" y="21.69" width="5.9" height="5.9" transform="translate(-8.81 28.02) rotate(-45)"/></svg>