<?xml version="1.0" encoding="utf-8"?>
<!-- Generator: Adobe Illustrator 22.1.0, SVG Export Plug-In . SVG Version: 6.00 Build 0)  -->
<svg version="1.1" id="Ebene_1" xmlns="http://www.w3.org/2000/svg" xmlns:xlink="http://www.w3.org/1999/xlink" x="0px" y="0px"
	 viewBox="0 0 81 81" style="enable-background:new 0 0 81 81;" xml:space="preserve">
<style type="text/css">
	.st0{fill:#FFFFFF;}
</style>
<title>Zeichenfläche 2 Kopie 7</title>
<g>
	<path class="st0" d="M26.6,49.6L26.6,49.6c-1.1,2-1.9,6.7,1.3,6.7s3.3-6.1,2.4-13.2C29,44.6,27.8,47.2,26.6,49.6z"/>
	<path class="st0" d="M66.7,22.3l-18.7-11L43.5,0L10.3,22.2l4,36.2l18.7,11l4.6,11.2l33.2-22.1l0,0L66.7,22.3z M29.4,20.5l4.2,4.2
		l-4.2,4.2l-4.2-4.2L29.4,20.5z M61.1,45.8c-1.2,1.7-3.2,3.5-5.2,3.5c-0.4,0-0.7-0.1-1.1-0.1c-1.7-0.6-3.9-4.3-4.1-11.6
		c-1,2.7-1.9,7-3.2,8.6c-1.3,1.6-3,2.3-4.6,1.8c-1.7-0.6-2.9-2.2-3-4c-0.1-3.2,0.2-6.3,0.9-9.4c-2.6,3.1-4.6,5.8-5.5,6.7
		c1.2,9.3-0.8,12.3-5,15.3c-0.9,0.6-2.1,1-3.2,1c-0.7,0-1.4-0.1-2-0.4c-1.1-0.6-2.4-1.9-2.2-5.3c0.2-3.4,3.9-6.5,6.1-8.6
		c0.4-0.4,0.8-0.7,1-1c-0.5-3.1-2.4-9.9-2.4-9.9h5.9c0,0,1,4.1,1.5,7c3.2-2.9,6.8-6.8,6.8-6.8h4.3c0,0-2.5,10.1-1.2,11.8
		c0.1,0.2,0.3,0.3,0.6,0.3c1.8-0.1,4.9-7.1,6-12.1h4.2c-0.4,9.6,0.4,13.5,2,14.1c0.5,0.2,1.4-0.3,2.5-1.5l0.3-0.3l0.7,0.7L61.1,45.8
		z"/>
</g>
</svg>
